<?xml version="1.0" encoding="UTF-8"?>
<svg id="Layer_1" xmlns="http://www.w3.org/2000/svg" version="1.1" viewBox="0 0 154.9 154.9">
  <!-- Generator: Adobe Illustrator 29.8.2, SVG Export Plug-In . SVG Version: 2.1.1 Build 3)  -->
  <defs>
    <style>
      .st0 {
        fill: #fff;
      }
    </style>
  </defs>
  <path class="st0" d="M77.4.9C35.2.9.9,35.2.9,77.4s34.3,76.5,76.5,76.5,76.5-34.3,76.5-76.5S119.7.9,77.4.9ZM77.5,149.7c-.1,0-.3,0-.4,0-19.3-.1-37.3-7.7-50.8-21.4-13.5-13.7-20.9-31.8-20.8-51.1.1-19.3,7.7-37.3,21.4-50.8,13.6-13.4,31.6-20.8,50.7-20.8s.3,0,.4,0c39.7.2,71.9,32.8,71.7,72.5-.2,39.6-32.5,71.7-72.1,71.7Z"/>
  <path class="st0" d="M97,33.8v87.5c3.3-1.5,6.4-3.4,9.3-5.5v-33.2h18.8c.2-1.6.3-3.1.3-4.7.1-19.6-11.5-36.5-28.3-44ZM106.3,73.3v-21.2c5.1,5.8,8.5,13.1,9.4,21.2h-9.4Z"/>
  <path class="st0" d="M91.8,41.9v-10c-4.5-1.4-9.2-2.2-14.1-2.2-5.1,0-10.1.7-14.7,2.2v10h0v31.1h0v9.3h0v31.1h0v10c3,.9,6.1,1.6,9.3,1.9v-43h10.2v43c3.2-.3,6.3-1,9.3-1.9v-10s0,0,0,0v-31.1h0v-9.3h0v-31.1ZM82.5,72.9h-10.2v-33.5c1.7-.2,3.5-.4,5.3-.3,1.6,0,3.3.1,4.9.3v33.5Z"/>
  <path class="st0" d="M48.4,39.5l-4.4,18.9-5.6-8.5c-1.6,2.3-3.1,4.8-4.3,7.4-2.9,6.2-4.5,13.2-4.5,20.5,0,13,5.4,24.8,13.9,33.4v-15.7c-2.8-5.3-4.4-11.3-4.5-17.8,0-3.1.3-6.1,1-9l4,6,4.6-9.2v50.2c2.9,2.2,6,4,9.3,5.5V33.8c-2.2,1-4.3,2.1-6.3,3.4-1.1.7-2.2,1.5-3.2,2.2Z"/>
  <path class="st0" d="M38.1,123.5c-.6.7-.5,1.5.1,2,.6.5,1.4.4,2-.3.6-.7.5-1.5,0-2-.6-.5-1.4-.4-2,.3Z"/>
  <path class="st0" d="M78,136.5c-.8,0-1.3.6-1.3,1.5,0,.9.6,1.5,1.4,1.5.8,0,1.4-.6,1.3-1.5,0-.9-.6-1.5-1.4-1.5Z"/>
  <path class="st0" d="M93,134.5c-.6.2-.9.7-.7,1.3l.2.6,1.9-.5-.2-.6c-.2-.7-.7-1-1.3-.8Z"/>
  <path class="st0" d="M109,127.4c-.7.4-.8,1.2-.3,2,.5.7,1.3.9,1.9.5.7-.4.8-1.2.4-2-.5-.7-1.3-1-2-.5Z"/>
  <path class="st0" d="M77.9,9.6c-.1,0-.3,0-.4,0-18,0-34.9,7-47.7,19.6-12.9,12.8-20.1,29.8-20.2,47.9-.1,18.1,6.9,35.3,19.6,48.2,12.8,12.9,29.8,20.1,47.9,20.2.1,0,.3,0,.4,0,37.3,0,67.7-30.2,67.9-67.5.2-37.5-30.1-68.1-67.5-68.4ZM26.7,110.5c-.5.3-1.2.2-1.6-.4-.3-.5-.2-1.2.4-1.5s1.2-.2,1.5.3c.3.5.2,1.2-.4,1.5ZM34.9,118.3c-.5-.6-1.4-.6-2.1,0-.7.6-.7,1.5-.1,2,.2.2.4.3.6.4l.5-.5,1.2,1.3-2.7,2.6-1.2-1.3,1-.9c-.2-.1-.3-.2-.5-.4-1.3-1.4-1.3-3.3,0-4.4s3.1-1.1,4.4.3c.6.7,1,1.5.9,2.5h-1.5c0-.6,0-1.1-.4-1.4ZM37.2,126.6c-1.4-1.2-1.7-3-.6-4.3,1.1-1.4,3-1.5,4.4-.3,1.4,1.2,1.7,3,.6,4.4-1.1,1.4-3,1.5-4.4.3ZM45.4,132.3l-3.8-2.5,3.1-4.9,1.5,1-2.3,3.6,2.3,1.5-.8,1.3ZM52.8,131.2l-1.3-.7c-.6-.3-1-.2-1.3.5l2.1,1.1-.6,1.2-2.1-1.1-.9,1.8-1.6-.8,1.4-2.9c.8-1.5,2-1.9,3.6-1.1l1.4.7-.7,1.3ZM57.5,137.7l-1.7-.6,1.9-5.5,1.7.6-1.9,5.5ZM65.8,136.6l-.8,3.2-1.7-.4.8-3.2c.2-.7-.1-1.2-.7-1.3-.6-.1-1.1.2-1.2.8l-.8,3.2-1.8-.4.8-3.2c.4-1.5,1.7-2.3,3.4-1.9,1.6.4,2.5,1.7,2.1,3.2ZM73.1,137.5l-.4,3.3-1.8-.2.4-3.3c0-.7-.3-1.2-.9-1.2-.6,0-1,.3-1.1,1l-.4,3.3-1.8-.2.4-3.3c.2-1.6,1.5-2.5,3.1-2.3,1.6.2,2.7,1.4,2.5,2.9ZM78.1,141c-1.8,0-3.2-1.2-3.2-3,0-1.7,1.3-3,3.2-3.1,1.9,0,3.2,1.2,3.2,3,0,1.7-1.3,3-3.2,3.1ZM87.2,140.2l-1.8.3-3.2-5.4,1.9-.3,1.9,3.5h0s.9-3.9.9-3.9l1.9-.3-1.6,6.1ZM95.1,138.4l-.3-1.1-1.9.5.3,1.1-1.7.5-.9-3.2c-.4-1.5.4-2.8,2-3.3s3,.3,3.4,1.8l.9,3.2-1.7.5ZM101.9,136l-1.7.7-1.6-4-1.6.6-.6-1.4,4.9-2,.6,1.4-1.6.6,1.6,4ZM105.2,134.5l-2.6-5.2,1.6-.8,2.6,5.2-1.6.8ZM111.4,131.2c-1.6,1-3.4.6-4.3-.8-.9-1.5-.5-3.3,1.1-4.3,1.6-1,3.4-.6,4.3.8.9,1.5.5,3.3-1.1,4.3ZM118.7,125.6l-2.1-2.5c-.4-.5-1-.6-1.5-.2-.5.4-.5,1,0,1.5l2.1,2.5-1.4,1.2-2.1-2.5c-1-1.2-.8-2.8.5-3.8,1.3-1.1,2.8-1,3.8.2l2.1,2.5-1.4,1.1ZM123.4,121.3c-.7.8-1.7,1.3-2.4,1.4l-.4-1.4c.7-.2,1.4-.5,1.9-1,.3-.3.4-.6.2-.8-.2-.2-.5,0-1.1.3-1.1.8-2.1,1.1-3,.3-.9-.8-.6-2,.4-3.1.6-.7,1.3-1.1,2.1-1.2l.4,1.4c-.6.1-1.2.4-1.6.8-.3.3-.4.5-.2.7.2.2.5,0,1.1-.3,1.3-.9,2.1-1.2,2.9-.4.9.8.6,2.1-.4,3.2ZM77.1,130.5c-29.2-.2-52.8-24-52.6-53.3.2-29.2,24-52.8,53.3-52.6,29.2.2,52.8,24,52.6,53.3-.2,29.2-24,52.8-53.3,52.6ZM128.7,111.5c-.7-.4-.9-1.3-.4-1.9.4-.7,1.3-.9,1.9-.4.7.4.9,1.3.4,1.9-.4.7-1.3.8-1.9.4Z"/>
</svg>